<mxfile modified="2023-10-11T03:18:08.801Z" host="app.diagrams.net" agent="Mozilla/5.0 (Macintosh; Intel Mac OS X 10_15_7) AppleWebKit/537.36 (KHTML, like Gecko) Chrome/117.0.0.0 Safari/537.36" etag="HnzWxDdysZsiiSLy-hGn" version="22.0.4" type="device">
  <diagram id="Ht1M8jgEwFfnCIfOTk4-" name="Page-1">
    <mxGraphModel dx="1434" dy="789" grid="1" gridSize="10" guides="1" tooltips="1" connect="1" arrows="1" fold="1" page="1" pageScale="1" pageWidth="1169" pageHeight="827" math="0" shadow="0">
      <root>
        <mxCell id="0" />
        <mxCell id="1" parent="0" />
        <mxCell id="UEzPUAAOIrF-is8g5C7q-74" value="AWS Cloud" style="points=[[0,0],[0.25,0],[0.5,0],[0.75,0],[1,0],[1,0.25],[1,0.5],[1,0.75],[1,1],[0.75,1],[0.5,1],[0.25,1],[0,1],[0,0.75],[0,0.5],[0,0.25]];outlineConnect=0;gradientColor=none;html=1;whiteSpace=wrap;fontSize=12;fontStyle=0;shape=mxgraph.aws4.group;grIcon=mxgraph.aws4.group_aws_cloud_alt;strokeColor=#232F3E;fillColor=none;verticalAlign=top;align=left;spacingLeft=30;fontColor=#232F3E;dashed=0;labelBackgroundColor=#ffffff;container=1;pointerEvents=0;collapsible=0;recursiveResize=0;" parent="1" vertex="1">
          <mxGeometry x="210" y="130" width="880" height="650" as="geometry" />
        </mxCell>
        <mxCell id="UEzPUAAOIrF-is8g5C7q-77" value="output-bucket&lt;br&gt;(S3)" style="outlineConnect=0;fontColor=#232F3E;gradientColor=none;fillColor=#277116;strokeColor=none;dashed=0;verticalLabelPosition=bottom;verticalAlign=top;align=center;html=1;fontSize=12;fontStyle=0;aspect=fixed;pointerEvents=1;shape=mxgraph.aws4.bucket_with_objects;labelBackgroundColor=#ffffff;" parent="UEzPUAAOIrF-is8g5C7q-74" vertex="1">
          <mxGeometry x="762.23" y="449" width="50" height="52" as="geometry" />
        </mxCell>
        <mxCell id="UEzPUAAOIrF-is8g5C7q-78" value="input-bucket&lt;br&gt;(S3)" style="outlineConnect=0;fontColor=#232F3E;gradientColor=none;fillColor=#277116;strokeColor=none;dashed=0;verticalLabelPosition=bottom;verticalAlign=top;align=center;html=1;fontSize=12;fontStyle=0;aspect=fixed;pointerEvents=1;shape=mxgraph.aws4.bucket_with_objects;labelBackgroundColor=#ffffff;" parent="UEzPUAAOIrF-is8g5C7q-74" vertex="1">
          <mxGeometry x="760" y="281.25" width="44.23" height="46" as="geometry" />
        </mxCell>
        <mxCell id="oYnLOX3qxrRyNHf7yVGS-5" value="Web-Tier&lt;br&gt;(EC2)" style="outlineConnect=0;dashed=0;verticalLabelPosition=bottom;verticalAlign=top;align=center;html=1;shape=mxgraph.aws3.ec2;fillColor=#F58534;gradientColor=none;" vertex="1" parent="UEzPUAAOIrF-is8g5C7q-74">
          <mxGeometry x="40" y="270.75" width="40" height="49.5" as="geometry" />
        </mxCell>
        <mxCell id="oYnLOX3qxrRyNHf7yVGS-32" value="Queries # of Messages&lt;br&gt;" style="edgeStyle=orthogonalEdgeStyle;rounded=0;orthogonalLoop=1;jettySize=auto;html=1;endArrow=none;endFill=0;exitX=0.5;exitY=0;exitDx=0;exitDy=0;exitPerimeter=0;" edge="1" parent="UEzPUAAOIrF-is8g5C7q-74" source="oYnLOX3qxrRyNHf7yVGS-10" target="oYnLOX3qxrRyNHf7yVGS-14">
          <mxGeometry x="0.4745" y="12" relative="1" as="geometry">
            <Array as="points">
              <mxPoint x="351" y="321" />
              <mxPoint x="350" y="321" />
              <mxPoint x="350" y="128" />
            </Array>
            <mxPoint as="offset" />
          </mxGeometry>
        </mxCell>
        <mxCell id="oYnLOX3qxrRyNHf7yVGS-35" value="Consumes Requests&lt;br&gt;" style="edgeStyle=orthogonalEdgeStyle;rounded=0;orthogonalLoop=1;jettySize=auto;html=1;entryX=0;entryY=0.25;entryDx=0;entryDy=0;" edge="1" parent="UEzPUAAOIrF-is8g5C7q-74" source="oYnLOX3qxrRyNHf7yVGS-10" target="oYnLOX3qxrRyNHf7yVGS-29">
          <mxGeometry x="0.188" y="15" relative="1" as="geometry">
            <Array as="points">
              <mxPoint x="410" y="321" />
              <mxPoint x="410" y="305" />
            </Array>
            <mxPoint as="offset" />
          </mxGeometry>
        </mxCell>
        <mxCell id="oYnLOX3qxrRyNHf7yVGS-10" value="request-queue&lt;br&gt;(SQS)" style="sketch=0;points=[[0,0,0],[0.25,0,0],[0.5,0,0],[0.75,0,0],[1,0,0],[0,1,0],[0.25,1,0],[0.5,1,0],[0.75,1,0],[1,1,0],[0,0.25,0],[0,0.5,0],[0,0.75,0],[1,0.25,0],[1,0.5,0],[1,0.75,0]];outlineConnect=0;fontColor=#232F3E;fillColor=#E7157B;strokeColor=#ffffff;dashed=0;verticalLabelPosition=bottom;verticalAlign=top;align=center;html=1;fontSize=12;fontStyle=0;aspect=fixed;shape=mxgraph.aws4.resourceIcon;resIcon=mxgraph.aws4.sqs;" vertex="1" parent="UEzPUAAOIrF-is8g5C7q-74">
          <mxGeometry x="330" y="300" width="42" height="42" as="geometry" />
        </mxCell>
        <mxCell id="oYnLOX3qxrRyNHf7yVGS-13" style="edgeStyle=orthogonalEdgeStyle;rounded=0;orthogonalLoop=1;jettySize=auto;html=1;entryX=1;entryY=0.79;entryDx=0;entryDy=0;entryPerimeter=0;" edge="1" parent="UEzPUAAOIrF-is8g5C7q-74" source="oYnLOX3qxrRyNHf7yVGS-11" target="oYnLOX3qxrRyNHf7yVGS-5">
          <mxGeometry relative="1" as="geometry" />
        </mxCell>
        <mxCell id="oYnLOX3qxrRyNHf7yVGS-11" value="Flask Server&lt;br&gt;(app.py)" style="sketch=0;outlineConnect=0;fontColor=#232F3E;gradientColor=none;fillColor=#232F3D;strokeColor=none;dashed=0;verticalLabelPosition=bottom;verticalAlign=top;align=center;html=1;fontSize=12;fontStyle=0;aspect=fixed;pointerEvents=1;shape=mxgraph.aws4.generic_application;" vertex="1" parent="UEzPUAAOIrF-is8g5C7q-74">
          <mxGeometry x="150" y="408" width="42" height="42" as="geometry" />
        </mxCell>
        <mxCell id="oYnLOX3qxrRyNHf7yVGS-33" value="Creates and Terminates Instances&lt;br&gt;" style="edgeStyle=orthogonalEdgeStyle;rounded=0;orthogonalLoop=1;jettySize=auto;html=1;" edge="1" parent="UEzPUAAOIrF-is8g5C7q-74" source="oYnLOX3qxrRyNHf7yVGS-14" target="oYnLOX3qxrRyNHf7yVGS-29">
          <mxGeometry x="0.0081" y="11" relative="1" as="geometry">
            <mxPoint as="offset" />
          </mxGeometry>
        </mxCell>
        <mxCell id="oYnLOX3qxrRyNHf7yVGS-14" value="Auto Scaler&lt;br&gt;(controller.py)" style="sketch=0;outlineConnect=0;fontColor=#232F3E;gradientColor=none;fillColor=#232F3D;strokeColor=none;dashed=0;verticalLabelPosition=bottom;verticalAlign=top;align=center;html=1;fontSize=12;fontStyle=0;aspect=fixed;pointerEvents=1;shape=mxgraph.aws4.generic_application;" vertex="1" parent="UEzPUAAOIrF-is8g5C7q-74">
          <mxGeometry x="150" y="90" width="42" height="42" as="geometry" />
        </mxCell>
        <mxCell id="oYnLOX3qxrRyNHf7yVGS-15" style="edgeStyle=orthogonalEdgeStyle;rounded=0;orthogonalLoop=1;jettySize=auto;html=1;entryX=0.5;entryY=0;entryDx=0;entryDy=0;entryPerimeter=0;endArrow=none;endFill=0;" edge="1" parent="UEzPUAAOIrF-is8g5C7q-74" source="oYnLOX3qxrRyNHf7yVGS-14" target="oYnLOX3qxrRyNHf7yVGS-5">
          <mxGeometry relative="1" as="geometry" />
        </mxCell>
        <mxCell id="oYnLOX3qxrRyNHf7yVGS-21" value="Reads Classification Data&lt;br&gt;" style="edgeStyle=orthogonalEdgeStyle;rounded=0;orthogonalLoop=1;jettySize=auto;html=1;exitX=0;exitY=0.5;exitDx=0;exitDy=0;exitPerimeter=0;" edge="1" parent="UEzPUAAOIrF-is8g5C7q-74" source="oYnLOX3qxrRyNHf7yVGS-16" target="oYnLOX3qxrRyNHf7yVGS-11">
          <mxGeometry x="-0.2757" y="14" relative="1" as="geometry">
            <mxPoint x="190" y="458" as="targetPoint" />
            <Array as="points">
              <mxPoint x="250" y="541" />
              <mxPoint x="250" y="440" />
            </Array>
            <mxPoint x="4" y="10" as="offset" />
          </mxGeometry>
        </mxCell>
        <mxCell id="oYnLOX3qxrRyNHf7yVGS-16" value="response-queue&lt;br&gt;(SQS)" style="sketch=0;points=[[0,0,0],[0.25,0,0],[0.5,0,0],[0.75,0,0],[1,0,0],[0,1,0],[0.25,1,0],[0.5,1,0],[0.75,1,0],[1,1,0],[0,0.25,0],[0,0.5,0],[0,0.75,0],[1,0.25,0],[1,0.5,0],[1,0.75,0]];outlineConnect=0;fontColor=#232F3E;fillColor=#E7157B;strokeColor=#ffffff;dashed=0;verticalLabelPosition=bottom;verticalAlign=top;align=center;html=1;fontSize=12;fontStyle=0;aspect=fixed;shape=mxgraph.aws4.resourceIcon;resIcon=mxgraph.aws4.sqs;" vertex="1" parent="UEzPUAAOIrF-is8g5C7q-74">
          <mxGeometry x="340" y="518" width="45" height="45" as="geometry" />
        </mxCell>
        <mxCell id="oYnLOX3qxrRyNHf7yVGS-23" value="Pushes Classification Request" style="edgeStyle=orthogonalEdgeStyle;rounded=0;orthogonalLoop=1;jettySize=auto;html=1;entryX=0;entryY=0.5;entryDx=0;entryDy=0;entryPerimeter=0;" edge="1" parent="UEzPUAAOIrF-is8g5C7q-74" source="oYnLOX3qxrRyNHf7yVGS-11" target="oYnLOX3qxrRyNHf7yVGS-10">
          <mxGeometry x="0.3468" y="22" relative="1" as="geometry">
            <Array as="points">
              <mxPoint x="250" y="429" />
              <mxPoint x="250" y="320" />
              <mxPoint x="320" y="320" />
              <mxPoint x="320" y="321" />
            </Array>
            <mxPoint x="-20" y="12" as="offset" />
          </mxGeometry>
        </mxCell>
        <mxCell id="oYnLOX3qxrRyNHf7yVGS-24" value="Custom Auto &lt;br&gt;Scaling Group" style="sketch=0;points=[[0,0,0],[0.25,0,0],[0.5,0,0],[0.75,0,0],[1,0,0],[0,1,0],[0.25,1,0],[0.5,1,0],[0.75,1,0],[1,1,0],[0,0.25,0],[0,0.5,0],[0,0.75,0],[1,0.25,0],[1,0.5,0],[1,0.75,0]];outlineConnect=0;fontColor=#232F3E;fillColor=#ED7100;strokeColor=#ffffff;dashed=0;verticalLabelPosition=bottom;verticalAlign=top;align=center;html=1;fontSize=12;fontStyle=0;aspect=fixed;shape=mxgraph.aws4.resourceIcon;resIcon=mxgraph.aws4.auto_scaling2;" vertex="1" parent="UEzPUAAOIrF-is8g5C7q-74">
          <mxGeometry x="553.25" y="563" width="42" height="42" as="geometry" />
        </mxCell>
        <mxCell id="oYnLOX3qxrRyNHf7yVGS-25" value="App-Tier N&lt;br style=&quot;border-color: var(--border-color);&quot;&gt;(EC2)" style="sketch=0;points=[[0,0,0],[0.25,0,0],[0.5,0,0],[0.75,0,0],[1,0,0],[0,1,0],[0.25,1,0],[0.5,1,0],[0.75,1,0],[1,1,0],[0,0.25,0],[0,0.5,0],[0,0.75,0],[1,0.25,0],[1,0.5,0],[1,0.75,0]];outlineConnect=0;fontColor=#232F3E;fillColor=#ED7100;strokeColor=#ffffff;dashed=0;verticalLabelPosition=bottom;verticalAlign=top;align=center;html=1;fontSize=12;fontStyle=0;aspect=fixed;shape=mxgraph.aws4.resourceIcon;resIcon=mxgraph.aws4.ec2;" vertex="1" parent="UEzPUAAOIrF-is8g5C7q-74">
          <mxGeometry x="553.25" y="468" width="38" height="38" as="geometry" />
        </mxCell>
        <mxCell id="oYnLOX3qxrRyNHf7yVGS-26" value="App-Tier 2&lt;br style=&quot;border-color: var(--border-color);&quot;&gt;(EC2)" style="sketch=0;points=[[0,0,0],[0.25,0,0],[0.5,0,0],[0.75,0,0],[1,0,0],[0,1,0],[0.25,1,0],[0.5,1,0],[0.75,1,0],[1,1,0],[0,0.25,0],[0,0.5,0],[0,0.75,0],[1,0.25,0],[1,0.5,0],[1,0.75,0]];outlineConnect=0;fontColor=#232F3E;fillColor=#ED7100;strokeColor=#ffffff;dashed=0;verticalLabelPosition=bottom;verticalAlign=top;align=center;html=1;fontSize=12;fontStyle=0;aspect=fixed;shape=mxgraph.aws4.resourceIcon;resIcon=mxgraph.aws4.ec2;" vertex="1" parent="UEzPUAAOIrF-is8g5C7q-74">
          <mxGeometry x="553.25" y="331.5" width="38.5" height="38.5" as="geometry" />
        </mxCell>
        <mxCell id="oYnLOX3qxrRyNHf7yVGS-27" value="App-Tier 1&lt;br&gt;(EC2)" style="sketch=0;points=[[0,0,0],[0.25,0,0],[0.5,0,0],[0.75,0,0],[1,0,0],[0,1,0],[0.25,1,0],[0.5,1,0],[0.75,1,0],[1,1,0],[0,0.25,0],[0,0.5,0],[0,0.75,0],[1,0.25,0],[1,0.5,0],[1,0.75,0]];outlineConnect=0;fontColor=#232F3E;fillColor=#ED7100;strokeColor=#ffffff;dashed=0;verticalLabelPosition=bottom;verticalAlign=top;align=center;html=1;fontSize=12;fontStyle=0;aspect=fixed;shape=mxgraph.aws4.resourceIcon;resIcon=mxgraph.aws4.ec2;" vertex="1" parent="UEzPUAAOIrF-is8g5C7q-74">
          <mxGeometry x="553.25" y="232.75" width="38" height="38" as="geometry" />
        </mxCell>
        <mxCell id="oYnLOX3qxrRyNHf7yVGS-36" value="Saves Classification&lt;br&gt;Images" style="edgeStyle=orthogonalEdgeStyle;rounded=0;orthogonalLoop=1;jettySize=auto;html=1;exitX=1;exitY=0.25;exitDx=0;exitDy=0;" edge="1" parent="UEzPUAAOIrF-is8g5C7q-74" source="oYnLOX3qxrRyNHf7yVGS-29" target="UEzPUAAOIrF-is8g5C7q-78">
          <mxGeometry x="0.0067" y="24" relative="1" as="geometry">
            <mxPoint as="offset" />
          </mxGeometry>
        </mxCell>
        <mxCell id="oYnLOX3qxrRyNHf7yVGS-37" value="Saves Classification&lt;br&gt;Output" style="edgeStyle=orthogonalEdgeStyle;rounded=0;orthogonalLoop=1;jettySize=auto;html=1;exitX=1;exitY=0.75;exitDx=0;exitDy=0;" edge="1" parent="UEzPUAAOIrF-is8g5C7q-74" source="oYnLOX3qxrRyNHf7yVGS-29" target="UEzPUAAOIrF-is8g5C7q-77">
          <mxGeometry x="0.0275" y="25" relative="1" as="geometry">
            <mxPoint as="offset" />
          </mxGeometry>
        </mxCell>
        <mxCell id="oYnLOX3qxrRyNHf7yVGS-38" value="Pushes Result" style="edgeStyle=orthogonalEdgeStyle;rounded=0;orthogonalLoop=1;jettySize=auto;html=1;exitX=0;exitY=0.75;exitDx=0;exitDy=0;" edge="1" parent="UEzPUAAOIrF-is8g5C7q-74" source="oYnLOX3qxrRyNHf7yVGS-29" target="oYnLOX3qxrRyNHf7yVGS-16">
          <mxGeometry x="-0.4443" y="-15" relative="1" as="geometry">
            <Array as="points">
              <mxPoint x="420" y="475" />
              <mxPoint x="420" y="541" />
            </Array>
            <mxPoint as="offset" />
          </mxGeometry>
        </mxCell>
        <mxCell id="oYnLOX3qxrRyNHf7yVGS-29" value="" style="rounded=1;whiteSpace=wrap;html=1;strokeColor=default;fillColor=none;dashed=1;strokeWidth=1;" vertex="1" parent="UEzPUAAOIrF-is8g5C7q-74">
          <mxGeometry x="514.25" y="220" width="120" height="340" as="geometry" />
        </mxCell>
        <mxCell id="oYnLOX3qxrRyNHf7yVGS-2" value="Load Generators&lt;br&gt;(Clients)" style="sketch=0;outlineConnect=0;gradientColor=none;fontColor=#545B64;strokeColor=none;fillColor=#879196;dashed=0;verticalLabelPosition=bottom;verticalAlign=top;align=center;html=1;fontSize=12;fontStyle=0;aspect=fixed;shape=mxgraph.aws4.illustration_devices;pointerEvents=1" vertex="1" parent="1">
          <mxGeometry x="80" y="389" width="100" height="73" as="geometry" />
        </mxCell>
        <mxCell id="oYnLOX3qxrRyNHf7yVGS-4" value="" style="edgeStyle=orthogonalEdgeStyle;html=1;endArrow=block;elbow=vertical;startArrow=none;endFill=1;strokeColor=#545B64;rounded=0;entryX=0;entryY=0.5;entryDx=0;entryDy=0;entryPerimeter=0;" edge="1" parent="1" source="oYnLOX3qxrRyNHf7yVGS-2" target="oYnLOX3qxrRyNHf7yVGS-5">
          <mxGeometry width="100" relative="1" as="geometry">
            <mxPoint x="529" y="374" as="sourcePoint" />
            <mxPoint x="629" y="374" as="targetPoint" />
          </mxGeometry>
        </mxCell>
      </root>
    </mxGraphModel>
  </diagram>
</mxfile>
